Walking01.mot
version=1
nRows=18
nColumns=19
inDegrees=yes
endheader
time	ground_force1_vx	ground_force1_vy	ground_force1_vz	ground_force1_px	ground_force1_py	ground_force1_pz	ground_force2_vx	ground_force2_vy	ground_force2_vz	ground_force2_px	ground_force2_py	ground_force2_pz	ground_torque1_x	ground_torque1_y	ground_torque1_z	ground_torque2_x	ground_torque2_y	ground_torque2_z
      1.65500000	     84.81571948	    254.68218781	      7.44948011	      0.42682142	      0.00000000	     -0.06995441	      0.00000000	      0.00000000	      0.00000000	      0.00000000	      0.00000000	      0.00000000	      0.00000000	      1.73860128	      0.00000000	      0.00000000	      0.00000000	      0.00000000
      1.65600000	     84.47235154	    250.03747339	      7.61240386	      0.42702319	      0.00000000	     -0.07008386	      0.00000000	      0.00000000	      0.00000000	      0.00000000	      0.00000000	      0.00000000	      0.00000000	      1.71006442	      0.00000000	      0.00000000	      0.00000000	      0.00000000
      1.65700000	     84.05955910	    245.25803689	      7.77681131	      0.42723200	      0.00000000	     -0.07021675	      0.00000000	      0.00000000	      0.00000000	      0.00000000	      0.00000000	      0.00000000	      0.00000000	      1.68129124	      0.00000000	      0.00000000	      0.00000000	      0.00000000
      1.65800000	     83.57473661	    240.34715193	      7.94211690	      0.42744875	      0.00000000	     -0.07035359	      0.00000000	      0.00000000	      0.00000000	      0.00000000	      0.00000000	      0.00000000	      0.00000000	      1.65238921	      0.00000000	      0.00000000	      0.00000000	      0.00000000
      1.65900000	     83.01533148	    235.30865566	      8.10770302	      0.42767451	      0.00000000	     -0.07049491	      0.00000000	      0.00000000	      0.00000000	      0.00000000	      0.00000000	      0.00000000	      0.00000000	      1.62345875	      0.00000000	      0.00000000	      0.00000000	      0.00000000
      1.66000000	     82.37880561	    230.14708354	      8.27293945	      0.42791047	      0.00000000	     -0.07064124	      0.00000000	      0.00000000	      0.00000000	      0.00000000	      0.00000000	      0.00000000	      0.00000000	      1.59458948	      0.00000000	      0.00000000	      0.00000000	      0.00000000
      1.66100000	     81.66261278	    224.86779141	      8.43719637	      0.42815793	      0.00000000	     -0.07079311	      0.00000000	      0.00000000	      0.00000000	      0.00000000	      0.00000000	      0.00000000	      0.00000000	      1.56585706	      0.00000000	      0.00000000	      0.00000000	      0.00000000
      1.66200000	     80.86418195	    219.47702911	      8.59984791	      0.42841822	      0.00000000	     -0.07095103	      0.00000000	      0.00000000	      0.00000000	      0.00000000	      0.00000000	      0.00000000	      0.00000000	      1.53732193	      0.00000000	      0.00000000	      0.00000000	      0.00000000
      1.66300000	     79.98090378	    213.98193676	      8.76026999	      0.42869276	      0.00000000	     -0.07111552	      0.00000000	      0.00000000	      0.00000000	      0.00000000	      0.00000000	      0.00000000	      0.00000000	      1.50903055	      0.00000000	      0.00000000	      0.00000000	      0.00000000
      1.66400000	     79.01013295	    208.39049294	      8.91784022	      0.42898308	      0.00000000	     -0.07128711	      0.00000000	      0.00000000	      0.00000000	      0.00000000	      0.00000000	      0.00000000	      0.00000000	      1.48101724	      0.00000000	      0.00000000	      0.00000000	      0.00000000
      1.66500000	     77.94922106	    202.71152453	      9.07193978	      0.42929085	      0.00000000	     -0.07146635	      0.00000000	      0.00000000	      0.00000000	      0.00000000	      0.00000000	      0.00000000	      0.00000000	      1.45330491	      0.00000000	      0.00000000	      0.00000000	      0.00000000
      1.66600000	     76.79559131	    196.95480618	      9.22195171	      0.42961790	      0.00000000	     -0.07165380	      0.00000000	      0.00000000	      0.00000000	      0.00000000	      0.00000000	      0.00000000	      0.00000000	      1.42590511	      0.00000000	      0.00000000	      0.00000000	      0.00000000
      1.66700000	     75.54685164	    191.13114066	      9.36725237	      0.42996620	      0.00000000	     -0.07184998	      0.00000000	      0.00000000	      0.00000000	      0.00000000	      0.00000000	      0.00000000	      0.00000000	      1.39881907	      0.00000000	      0.00000000	      0.00000000	      0.00000000
      1.66800000	     74.20092395	    185.25236617	      9.50719582	      0.43033779	      0.00000000	     -0.07205547	      0.00000000	      0.00000000	      0.00000000	      0.00000000	      0.00000000	      0.00000000	      0.00000000	      1.37203848	      0.00000000	      0.00000000	      0.00000000	      0.00000000
      1.66900000	     72.75617930	    179.33133791	      9.64109585	      0.43073474	      0.00000000	     -0.07227082	      0.00000000	      0.00000000	      0.00000000	      0.00000000	      0.00000000	      0.00000000	      0.00000000	      1.34554349	      0.00000000	      0.00000000	      0.00000000	      0.00000000
      1.67000000	     71.21158564	    173.38187834	      9.76821527	      0.43115909	      0.00000000	     -0.07249656	      0.00000000	      0.00000000	      0.00000000	      0.00000000	      0.00000000	      0.00000000	      0.00000000	      1.31929992	      0.00000000	      0.00000000	      0.00000000	      0.00000000
      1.67100000	     69.56685176	    167.41865686	      9.88776620	      0.43161279	      0.00000000	     -0.07273314	      0.00000000	      0.00000000	      0.00000000	      0.00000000	      0.00000000	      0.00000000	      0.00000000	      1.29325765	      0.00000000	      0.00000000	      0.00000000	      0.00000000
      1.67200000	     67.82253942	    161.45702194	      9.99892091	      0.43209767	      0.00000000	     -0.07298090	      0.00000000	      0.00000000	      0.00000000	      0.00000000	      0.00000000	      0.00000000	      0.00000000	      1.26734996	      0.00000000	      0.00000000	      0.00000000	      0.00000000
